# xmcd CD database file
#
# Track frame offsets:
#	150
#	13773
#	26403
#	41396
#	56408
#	71354
#	86947
#	100230
#	114539
#
# Disc length: 1724 seconds
#
# Revision: 0
# Processed by: cddbd v1.5.2PL0 Copyright (c) Steve Scherf et al.
# Submitted via: CDex 1.70beta2
#
DISCID=6c06ba09
DTITLE=compilation - jazz magazine 1930
DYEAR=1900
DGENRE=Jazz
TTITLE0=Gregor et ses gregoriens - Je chante sous la pluie
TTITLE1=Ted Lewis and his band - Harminica Harry
TTITLE2=The casa loma orchestra - Cas loma stomp
TTITLE3=Luis Russell and his orchestra - Panama
TTITLE4=Heny Red Allen and his orchestra - Patron Wagon Blues
TTITLE5=Edith Wilson with Bubber Miley and his milegae makers - the penalty of love
TTITLE6=Noble Dissle and his sizzling syncopators - You can(t get to heaven that way
TTITLE7=Andy kirk and his twelve clouds of joy - Mary's idea
TTITLE8=The Missourians - Prohibition blues
EXTD=
EXTT0=
EXTT1=
EXTT2=
EXTT3=
EXTT4=
EXTT5=
EXTT6=
EXTT7=
EXTT8=
PLAYORDER=
